G04 DesignSpark PCB Gerber Version 12.0 Build 5942*
%FSLAX35Y35*%
%MOMM*%
%ADD27R,1.68400X1.68400*%
%ADD26C,1.31000*%
%ADD22C,1.37920*%
%ADD25C,1.81000*%
%ADD23C,3.75000*%
X0Y0D02*
D02*
D22*
X42650000Y45515000D03*
X43450000D03*
X44250000D03*
X45050000D03*
X45880000D03*
X46670000D03*
X47480000D03*
X48280000D03*
D02*
D23*
X42150000Y44735000D03*
X42170000Y46555000D03*
X49280000Y44735000D03*
Y46555000D03*
D02*
D25*
X42656000Y46601000D03*
X42910000D03*
X43164000D03*
X43456000D03*
X43710000D03*
X43964000D03*
X44256000D03*
X44510000D03*
X44764000D03*
X45056000D03*
X45310000D03*
X45564000D03*
X45876000D03*
X46130000D03*
X46384000D03*
X46676000D03*
X46930000D03*
X47184000D03*
X47476000Y46591000D03*
X47730000D03*
X47984000D03*
X48276000D03*
X48530000D03*
X48784000D03*
D02*
D26*
X42656000Y46855000D03*
X42910000D03*
X43164000D03*
X43456000D03*
X43710000D03*
X43964000D03*
X44256000D03*
X44510000D03*
X44764000D03*
X45056000D03*
X45310000D03*
X45564000D03*
X45876000D03*
X46130000D03*
X46384000D03*
X46676000D03*
X46930000D03*
X47184000D03*
X47476000Y46845000D03*
X47730000D03*
X47984000D03*
X48276000D03*
X48530000D03*
X48784000D03*
D02*
D27*
X42650000Y46035000D03*
X42904000D03*
X43158000D03*
X43450000D03*
X43704000D03*
X43958000D03*
X43990000Y44605000D03*
X44244000D03*
X44250000Y46035000D03*
X44498000Y44605000D03*
X44504000Y46035000D03*
X44752000Y44605000D03*
X44758000Y46035000D03*
X45006000Y44605000D03*
X45050000Y46035000D03*
X45260000Y44605000D03*
X45304000Y46035000D03*
X45514000Y44605000D03*
X45558000Y46035000D03*
X45768000Y44605000D03*
X45870000Y46035000D03*
X46124000D03*
X46378000D03*
X46670000D03*
X46924000D03*
X46940000Y44605000D03*
X47178000Y46035000D03*
X47194000Y44605000D03*
X47470000Y46035000D03*
X47724000D03*
X47978000D03*
X48270000D03*
X48524000D03*
X48778000D03*
X0Y0D02*
M02*
