G05
M48
;#@! TF.GenerationSoftware,DesignSpark,DesignSpark PCB,12.0.5940
;#@! TF.CreationDate,2025-02-07T22:01:48+00:00*
;#@! TF.FileFunction,Plated,1,2,PTH
;FILE_FORMAT=3:5
;TYPE=PLATED
INCH,TZ
FMAT,2
T1C000.02400
T2C000.03500
T3C000.04331
T4C000.04528
T5C000.10000
%
T001
X1679134Y1791929
X1710630Y1791929
X1742126Y1791929
X1773622Y1791929
X1806299Y1791929
X1837402Y1791929
X1869291Y1791929
X1900787Y1791929
T002
X1679134Y1812402
X1689134Y1812402
X1699134Y1812402
X1710630Y1812402
X1720630Y1812402
X1730630Y1812402
X1731890Y1756102
X1741890Y1756102
X1742126Y1812402
X1751890Y1756102
X1752126Y1812402
X1761890Y1756102
X1762126Y1812402
X1771890Y1756102
X1773622Y1812402
X1781890Y1756102
X1783622Y1812402
X1791890Y1756102
X1793622Y1812402
X1801890Y1756102
X1805906Y1812402
X1815906Y1812402
X1825906Y1812402
X1837402Y1812402
X1847402Y1812402
X1848031Y1756102
X1857402Y1812402
X1858031Y1756102
X1868898Y1812402
X1878898Y1812402
X1888898Y1812402
X1900394Y1812402
X1910394Y1812402
X1920394Y1812402
T003
X1679370Y1834685
X1689370Y1834685
X1699370Y1834685
X1710866Y1834685
X1720866Y1834685
X1730866Y1834685
X1742362Y1834685
X1752362Y1834685
X1762362Y1834685
X1773858Y1834685
X1783858Y1834685
X1793858Y1834685
X1806142Y1834685
X1816142Y1834685
X1826142Y1834685
X1837638Y1834685
X1847638Y1834685
X1857638Y1834685
X1869134Y1834291
X1879134Y1834291
X1889134Y1834291
X1900630Y1834291
X1910630Y1834291
X1920630Y1834291
T004
X1679370Y1844685
X1689370Y1844685
X1699370Y1844685
X1710866Y1844685
X1720866Y1844685
X1730866Y1844685
X1742362Y1844685
X1752362Y1844685
X1762362Y1844685
X1773858Y1844685
X1783858Y1844685
X1793858Y1844685
X1806142Y1844685
X1816142Y1844685
X1826142Y1844685
X1837638Y1844685
X1847638Y1844685
X1857638Y1844685
X1869134Y1844291
X1879134Y1844291
X1889134Y1844291
X1900630Y1844291
X1910630Y1844291
X1920630Y1844291
T005
X1659449Y1761220
X1660236Y1832874
X1940157Y1761220
X1940157Y1832874
M30
