G04 DesignSpark PCB Gerber Version 12.0 Build 5942*
%FSLAX35Y35*%
%MOMM*%
%ADD20R,1.52400X1.52400*%
%ADD13C,0.12700*%
%ADD12C,0.25400*%
%ADD16C,0.38100*%
%ADD18C,1.21920*%
%ADD17C,1.27000*%
%ADD71C,1.65000*%
%ADD19C,3.59000*%
%ADD70R,1.52400X1.29540*%
%ADD21R,1.52400X1.39700*%
X0Y0D02*
D02*
D12*
X1220350Y1944350D02*
Y1226050D01*
X1242050Y1204350D01*
X1407150D02*
X1356350D01*
X1410550Y2510350D02*
X1359750D01*
X1412850Y1429100D02*
X1362050D01*
X1470650Y1147200D02*
Y1096400D01*
Y1261500D02*
Y1312300D01*
X1476350Y1377030D02*
Y1326250D01*
X1480350Y2440550D02*
Y2389750D01*
Y2580150D02*
Y2630950D01*
X1534150Y1204350D02*
X1584950D01*
X1539850Y1429100D02*
X1590650D01*
X1550150Y2510350D02*
X1600950D01*
X2020350Y1944350D02*
Y1070350D01*
X2136350Y954350D01*
X2210550Y2510350D02*
X2159750D01*
X2212850Y1429100D02*
X2162050D01*
X2227150Y1204350D02*
X2176350D01*
X2276350Y1377030D02*
Y1326250D01*
X2280350Y2440550D02*
Y2389750D01*
Y2580150D02*
Y2630950D01*
X2290650Y1147200D02*
Y1096400D01*
Y1261500D02*
Y1312300D01*
X2339850Y1429100D02*
X2390650D01*
X2350150Y2510350D02*
X2400950D01*
X2354150Y1204350D02*
X2404950D01*
X2820350Y1944350D02*
Y520350D01*
X2814350Y514350D01*
X3010550Y2510350D02*
X2959750D01*
X3022850Y1429100D02*
X2972050D01*
X3037150Y1204350D02*
X2986350D01*
X3080350Y2440550D02*
Y2389750D01*
Y2580150D02*
Y2630950D01*
X3086350Y1377030D02*
Y1326250D01*
X3100650Y1147200D02*
Y1096400D01*
Y1261500D02*
Y1312300D01*
X3149850Y1429100D02*
X3200650D01*
X3150150Y2510350D02*
X3200950D01*
X3164150Y1204350D02*
X3214950D01*
X3802850Y1429100D02*
X3752050D01*
X3807150Y1204350D02*
X3756350D01*
X3810550Y2510350D02*
X3759750D01*
X3866350Y1377030D02*
Y1326250D01*
X3870650Y1147200D02*
Y1096400D01*
Y1261500D02*
Y1312300D01*
X3880350Y2440550D02*
Y2389750D01*
Y2580150D02*
Y2630950D01*
X3929850Y1429100D02*
X3980650D01*
X3934150Y1204350D02*
X3984950D01*
X3950150Y2510350D02*
X4000950D01*
X4630550D02*
X4579750D01*
X4632850Y1429100D02*
X4582050D01*
X4637150Y1204350D02*
X4586350D01*
X4696350Y1377030D02*
Y1326250D01*
X4700350Y2440550D02*
Y2389750D01*
Y2580150D02*
Y2630950D01*
X4700650Y1147200D02*
Y1096400D01*
Y1261500D02*
Y1312300D01*
X4759850Y1429100D02*
X4810650D01*
X4764150Y1204350D02*
X4814950D01*
X4770150Y2510350D02*
X4820950D01*
X5430550D02*
X5379750D01*
X5432850Y1429100D02*
X5382050D01*
X5437150Y1204350D02*
X5386350D01*
X5446850Y514350D02*
X5396050D01*
X5496350Y1377030D02*
Y1326250D01*
X5500350Y2440550D02*
Y2389750D01*
Y2580150D02*
Y2630950D01*
X5500650Y1147200D02*
Y1096400D01*
Y1261500D02*
Y1312300D01*
X5510350Y450850D02*
Y400050D01*
Y577850D02*
Y628650D01*
X5559850Y1429100D02*
X5610650D01*
X5564150Y1204350D02*
X5614950D01*
X5570150Y2510350D02*
X5620950D01*
X5573850Y514350D02*
X5624650D01*
X6230550Y2500350D02*
X6179750D01*
X6232850Y1419100D02*
X6182050D01*
X6237150Y1204350D02*
X6186350D01*
X6296350Y1367030D02*
Y1316250D01*
X6300350Y2430550D02*
Y2379750D01*
Y2570150D02*
Y2620950D01*
X6300650Y1147200D02*
Y1096400D01*
Y1261500D02*
Y1312300D01*
X6359850Y1419100D02*
X6410650D01*
X6364150Y1204350D02*
X6414950D01*
X6370150Y2500350D02*
X6420950D01*
X7030550D02*
X6979750D01*
X7047150Y1204350D02*
X6996350D01*
X7052850Y1419100D02*
X7002050D01*
X7100350Y2430550D02*
Y2379750D01*
Y2570150D02*
Y2620950D01*
X7110650Y1147200D02*
Y1096400D01*
Y1261500D02*
Y1312300D01*
X7116350Y1367030D02*
Y1316250D01*
X7170150Y2500350D02*
X7220950D01*
X7174150Y1204350D02*
X7224950D01*
X7179850Y1419100D02*
X7230650D01*
D02*
D13*
X54450Y2584350D02*
Y674350D01*
G75*
G03*
X516350Y212450I461900J0D01*
G01*
X7556350D01*
G75*
G03*
X8018250Y674350I0J461900D01*
G01*
Y2584350D01*
G75*
G03*
X7556350Y3046250I-461900J0D01*
G01*
X516350D01*
G75*
G03*
X54450Y2584350I0J-461900D01*
G01*
X972350Y2624600D02*
G75*
G02*
X1086600Y2510350I0J-114250D01*
G01*
G75*
G02*
X972350Y2396100I-114250J0D01*
G01*
G75*
G02*
X858100Y2510350I0J114250D01*
G01*
G75*
G02*
X972350Y2624600I114250J0D01*
G01*
X858400Y1332550D02*
Y1716150D01*
X915550D01*
Y1836400D01*
X858400D01*
Y2052300D01*
X1074300D01*
Y1836400D01*
X1017150D01*
Y1716150D01*
X1074300D01*
Y1332550D01*
X991750D01*
G75*
G02*
X940950I-25400J91790D01*
G01*
X858400D01*
X972350Y2853600D02*
G75*
G02*
X1061600Y2764350I0J-89250D01*
G01*
G75*
G02*
X972350Y2675100I-89250J0D01*
G01*
G75*
G02*
X883100Y2764350I0J89250D01*
G01*
G75*
G02*
X972350Y2853600I89250J0D01*
G01*
X1226350Y2624600D02*
G75*
G02*
X1277150Y2408020I0J-114250D01*
G01*
Y2052300D01*
X1328300D01*
Y1836400D01*
X1264800D01*
Y1305950D01*
X1350000D01*
Y1102750D01*
X1339790D01*
X1507390Y935150D01*
X2089320D01*
G75*
G02*
X2087530Y940310I47020J19200D01*
G01*
X1989160Y1038680D01*
G75*
G02*
X1975900Y1070350I31190J31670D01*
G01*
Y1102750D01*
X1954100D01*
Y1305950D01*
X1975900D01*
Y1836400D01*
X1912400D01*
Y2052300D01*
X1975550D01*
Y2408020D01*
G75*
G02*
X2026350Y2624600I50800J102330D01*
G01*
G75*
G02*
X2077150Y2408020I0J-114250D01*
G01*
Y2052300D01*
X2128300D01*
Y1836400D01*
X2064800D01*
Y1305950D01*
X2170000D01*
Y1102750D01*
X2064800D01*
Y1088760D01*
X2148410Y1005150D01*
X2470350D01*
G75*
G02*
X2506540Y990000I0J-50800D01*
G01*
X2596000Y900540D01*
G75*
G02*
X2611150Y864350I-35650J-36190D01*
G01*
Y622300D01*
X2668300D01*
Y406400D01*
X2452400D01*
Y622300D01*
X2509550D01*
Y843310D01*
X2449310Y903550D01*
X2288990D01*
X2342000Y850540D01*
G75*
G02*
X2357150Y814350I-35650J-36190D01*
G01*
Y622300D01*
X2414300D01*
Y406400D01*
X2198400D01*
Y622300D01*
X2255550D01*
Y793310D01*
X2215310Y833550D01*
X1486350D01*
G75*
G02*
X1450160Y848700I0J50800D01*
G01*
X1206400Y1092460D01*
G75*
G02*
X1198350Y1102750I35650J36180D01*
G01*
X1134100D01*
Y1305950D01*
X1175900D01*
Y1836400D01*
X1112400D01*
Y2052300D01*
X1175550D01*
Y2408020D01*
G75*
G02*
X1226350Y2624600I50800J102330D01*
G01*
Y2853600D02*
G75*
G02*
X1315600Y2764350I0J-89250D01*
G01*
G75*
G02*
X1226350Y2675100I-89250J0D01*
G01*
G75*
G02*
X1137100Y2764350I0J89250D01*
G01*
G75*
G02*
X1226350Y2853600I89250J0D01*
G01*
X1362700Y1305950D02*
X1578600D01*
Y1102750D01*
X1362700D01*
Y1305950D01*
X1480350Y2624600D02*
G75*
G02*
X1594600Y2510350I0J-114250D01*
G01*
G75*
G02*
X1480350Y2396100I-114250J0D01*
G01*
G75*
G02*
X1366100Y2510350I0J114250D01*
G01*
G75*
G02*
X1480350Y2624600I114250J0D01*
G01*
X1366400Y2052300D02*
X1582300D01*
Y1836400D01*
X1525150D01*
Y1716150D01*
X1584300D01*
Y1332550D01*
X1368400D01*
Y1716150D01*
X1423550D01*
Y1836400D01*
X1366400D01*
Y2052300D01*
X1480350Y2853600D02*
G75*
G02*
X1569600Y2764350I0J-89250D01*
G01*
G75*
G02*
X1480350Y2675100I-89250J0D01*
G01*
G75*
G02*
X1391100Y2764350I0J89250D01*
G01*
G75*
G02*
X1480350Y2853600I89250J0D01*
G01*
X1772350Y2624600D02*
G75*
G02*
X1886600Y2510350I0J-114250D01*
G01*
G75*
G02*
X1772350Y2396100I-114250J0D01*
G01*
G75*
G02*
X1658100Y2510350I0J114250D01*
G01*
G75*
G02*
X1772350Y2624600I114250J0D01*
G01*
X1658400Y1332550D02*
Y1716150D01*
X1715550D01*
Y1836400D01*
X1658400D01*
Y2052300D01*
X1874300D01*
Y1836400D01*
X1817150D01*
Y1716150D01*
X1874300D01*
Y1332550D01*
X1791750D01*
G75*
G02*
X1740950I-25400J91790D01*
G01*
X1658400D01*
X1772350Y2853600D02*
G75*
G02*
X1861600Y2764350I0J-89250D01*
G01*
G75*
G02*
X1772350Y2675100I-89250J0D01*
G01*
G75*
G02*
X1683100Y2764350I0J89250D01*
G01*
G75*
G02*
X1772350Y2853600I89250J0D01*
G01*
X2026350D02*
G75*
G02*
X2115600Y2764350I0J-89250D01*
G01*
G75*
G02*
X2026350Y2675100I-89250J0D01*
G01*
G75*
G02*
X1937100Y2764350I0J89250D01*
G01*
G75*
G02*
X2026350Y2853600I89250J0D01*
G01*
X2280350Y2624600D02*
G75*
G02*
X2394600Y2510350I0J-114250D01*
G01*
G75*
G02*
X2280350Y2396100I-114250J0D01*
G01*
G75*
G02*
X2166100Y2510350I0J114250D01*
G01*
G75*
G02*
X2280350Y2624600I114250J0D01*
G01*
X2166400Y2052300D02*
X2382300D01*
Y1836400D01*
X2325150D01*
Y1716150D01*
X2384300D01*
Y1332550D01*
X2168400D01*
Y1716150D01*
X2223550D01*
Y1836400D01*
X2166400D01*
Y2052300D01*
X2182700Y1305950D02*
X2398600D01*
Y1102750D01*
X2182700D01*
Y1305950D01*
X2280350Y2853600D02*
G75*
G02*
X2369600Y2764350I0J-89250D01*
G01*
G75*
G02*
X2280350Y2675100I-89250J0D01*
G01*
G75*
G02*
X2191100Y2764350I0J89250D01*
G01*
G75*
G02*
X2280350Y2853600I89250J0D01*
G01*
X2572350Y2624600D02*
G75*
G02*
X2686600Y2510350I0J-114250D01*
G01*
G75*
G02*
X2572350Y2396100I-114250J0D01*
G01*
G75*
G02*
X2458100Y2510350I0J114250D01*
G01*
G75*
G02*
X2572350Y2624600I114250J0D01*
G01*
X2458400Y1332550D02*
Y1716150D01*
X2515550D01*
Y1836400D01*
X2458400D01*
Y2052300D01*
X2674300D01*
Y1836400D01*
X2617150D01*
Y1716150D01*
X2674300D01*
Y1332550D01*
X2591750D01*
G75*
G02*
X2540950I-25400J91790D01*
G01*
X2458400D01*
X2572350Y2853600D02*
G75*
G02*
X2661600Y2764350I0J-89250D01*
G01*
G75*
G02*
X2572350Y2675100I-89250J0D01*
G01*
G75*
G02*
X2483100Y2764350I0J89250D01*
G01*
G75*
G02*
X2572350Y2853600I89250J0D01*
G01*
X2706400Y622300D02*
X2775900D01*
Y1102750D01*
X2764100D01*
Y1305950D01*
X2775900D01*
Y1836400D01*
X2712400D01*
Y2052300D01*
X2775550D01*
Y2408020D01*
G75*
G02*
X2826350Y2624600I50800J102330D01*
G01*
G75*
G02*
X2877150Y2408020I0J-114250D01*
G01*
Y2052300D01*
X2928300D01*
Y1836400D01*
X2864800D01*
Y1305950D01*
X2980000D01*
Y1102750D01*
X2864800D01*
Y622300D01*
X2922300D01*
Y406400D01*
X2706400D01*
Y622300D01*
X2960400D02*
X3017550D01*
Y634350D01*
G75*
G02*
X3032700Y670540I50800J0D01*
G01*
X3534100Y1171940D01*
Y1305950D01*
X3569550D01*
Y1836400D01*
X3512400D01*
Y2052300D01*
X3575550D01*
Y2408020D01*
G75*
G02*
X3626350Y2624600I50800J102330D01*
G01*
G75*
G02*
X3677150Y2408020I0J-114250D01*
G01*
Y2052300D01*
X3728300D01*
Y1836400D01*
X3671150D01*
Y1305950D01*
X3750000D01*
Y1102750D01*
X3608590D01*
X3509280Y1003440D01*
G75*
G02*
X3522350Y1005150I13070J-49090D01*
G01*
X4225310D01*
X4364100Y1143940D01*
Y1305950D01*
X4389550D01*
Y1836400D01*
X4332400D01*
Y2052300D01*
X4395550D01*
Y2408020D01*
G75*
G02*
X4446350Y2624600I50800J102330D01*
G01*
G75*
G02*
X4497150Y2408020I0J-114250D01*
G01*
Y2052300D01*
X4548300D01*
Y1836400D01*
X4491150D01*
Y1305950D01*
X4580000D01*
Y1102750D01*
X4466590D01*
X4298990Y935150D01*
X4965310D01*
X5164100Y1133940D01*
Y1305950D01*
X5189550D01*
Y1836400D01*
X5132400D01*
Y2052300D01*
X5195550D01*
Y2408020D01*
G75*
G02*
X5246350Y2624600I50800J102330D01*
G01*
G75*
G02*
X5297150Y2408020I0J-114250D01*
G01*
Y2052300D01*
X5348300D01*
Y1836400D01*
X5291150D01*
Y1305950D01*
X5380000D01*
Y1102750D01*
X5276590D01*
G75*
G02*
X5276000Y1102160I-36180J35590D01*
G01*
X5038990Y865150D01*
X5895310D01*
X6021250Y991090D01*
Y1102750D01*
X5964100D01*
Y1305950D01*
X5989550D01*
Y1836400D01*
X5932400D01*
Y2052300D01*
X5995550D01*
Y2398020D01*
G75*
G02*
X6046350Y2614600I50800J102330D01*
G01*
G75*
G02*
X6097150Y2398020I0J-114250D01*
G01*
Y2052300D01*
X6148300D01*
Y1836400D01*
X6091150D01*
Y1305950D01*
X6180000D01*
Y1102750D01*
X6122850D01*
Y970050D01*
G75*
G02*
X6107700Y933860I-50800J0D01*
G01*
X5968990Y795150D01*
X6715310D01*
X6831250Y911090D01*
Y1102750D01*
X6774100D01*
Y1305950D01*
X6789550D01*
Y1836400D01*
X6732400D01*
Y2052300D01*
X6795550D01*
Y2398020D01*
G75*
G02*
X6846350Y2614600I50800J102330D01*
G01*
G75*
G02*
X6897150Y2398020I0J-114250D01*
G01*
Y2052300D01*
X6948300D01*
Y1836400D01*
X6891150D01*
Y1305950D01*
X6990000D01*
Y1102750D01*
X6932850D01*
Y890050D01*
G75*
G02*
X6917700Y853860I-50800J0D01*
G01*
X6772540Y708700D01*
G75*
G02*
X6736350Y693550I-36190J35650D01*
G01*
X4165390D01*
X4135150Y663310D01*
Y622300D01*
X4192300D01*
Y406400D01*
X3976400D01*
Y622300D01*
X4033550D01*
Y684350D01*
G75*
G02*
X4048700Y720540I50800J0D01*
G01*
X4091710Y763550D01*
X3941390D01*
X3881150Y703310D01*
Y622300D01*
X3938300D01*
Y406400D01*
X3722400D01*
Y622300D01*
X3779550D01*
Y724350D01*
G75*
G02*
X3794700Y760540I50800J0D01*
G01*
X3867710Y833550D01*
X3697390D01*
X3627150Y763310D01*
Y622300D01*
X3684300D01*
Y406400D01*
X3468400D01*
Y622300D01*
X3525550D01*
Y784350D01*
G75*
G02*
X3540700Y820540I50800J0D01*
G01*
X3623710Y903550D01*
X3543390D01*
X3373150Y733310D01*
Y622300D01*
X3430300D01*
Y406400D01*
X3214400D01*
Y622300D01*
X3271550D01*
Y754350D01*
G75*
G02*
X3273260Y767420I50800J0D01*
G01*
X3128140Y622300D01*
X3176300D01*
Y406400D01*
X2960400D01*
Y622300D01*
X5148400D02*
X5364300D01*
Y406400D01*
X5148400D01*
Y622300D01*
X5402400D02*
X5618300D01*
Y406400D01*
X5402400D01*
Y622300D01*
X2826350Y2853600D02*
G75*
G02*
X2915600Y2764350I0J-89250D01*
G01*
G75*
G02*
X2826350Y2675100I-89250J0D01*
G01*
G75*
G02*
X2737100Y2764350I0J89250D01*
G01*
G75*
G02*
X2826350Y2853600I89250J0D01*
G01*
X3080350Y2624600D02*
G75*
G02*
X3194600Y2510350I0J-114250D01*
G01*
G75*
G02*
X3080350Y2396100I-114250J0D01*
G01*
G75*
G02*
X2966100Y2510350I0J114250D01*
G01*
G75*
G02*
X3080350Y2624600I114250J0D01*
G01*
X2966400Y2052300D02*
X3182300D01*
Y1836400D01*
X3125150D01*
Y1716150D01*
X3194300D01*
Y1332550D01*
X2978400D01*
Y1716150D01*
X3023550D01*
Y1836400D01*
X2966400D01*
Y2052300D01*
X2992700Y1305950D02*
X3208600D01*
Y1102750D01*
X2992700D01*
Y1305950D01*
X3080350Y2853600D02*
G75*
G02*
X3169600Y2764350I0J-89250D01*
G01*
G75*
G02*
X3080350Y2675100I-89250J0D01*
G01*
G75*
G02*
X2991100Y2764350I0J89250D01*
G01*
G75*
G02*
X3080350Y2853600I89250J0D01*
G01*
X3372350Y2624600D02*
G75*
G02*
X3486600Y2510350I0J-114250D01*
G01*
G75*
G02*
X3372350Y2396100I-114250J0D01*
G01*
G75*
G02*
X3258100Y2510350I0J114250D01*
G01*
G75*
G02*
X3372350Y2624600I114250J0D01*
G01*
X3258400Y1332550D02*
Y1716150D01*
X3315550D01*
Y1836400D01*
X3258400D01*
Y2052300D01*
X3474300D01*
Y1836400D01*
X3417150D01*
Y1716150D01*
X3474300D01*
Y1332550D01*
X3391750D01*
G75*
G02*
X3340950I-25400J91790D01*
G01*
X3258400D01*
X3372350Y2853600D02*
G75*
G02*
X3461600Y2764350I0J-89250D01*
G01*
G75*
G02*
X3372350Y2675100I-89250J0D01*
G01*
G75*
G02*
X3283100Y2764350I0J89250D01*
G01*
G75*
G02*
X3372350Y2853600I89250J0D01*
G01*
X3626350D02*
G75*
G02*
X3715600Y2764350I0J-89250D01*
G01*
G75*
G02*
X3626350Y2675100I-89250J0D01*
G01*
G75*
G02*
X3537100Y2764350I0J89250D01*
G01*
G75*
G02*
X3626350Y2853600I89250J0D01*
G01*
X3758400Y1332550D02*
Y1716150D01*
X3823550D01*
Y1836400D01*
X3766400D01*
Y2052300D01*
X3982300D01*
Y1836400D01*
X3925150D01*
Y1716150D01*
X3974300D01*
Y1332550D01*
X3758400D01*
X3762700Y1305950D02*
X3978600D01*
Y1102750D01*
X3762700D01*
Y1305950D01*
X3880350Y2624600D02*
G75*
G02*
X3994600Y2510350I0J-114250D01*
G01*
G75*
G02*
X3880350Y2396100I-114250J0D01*
G01*
G75*
G02*
X3766100Y2510350I0J114250D01*
G01*
G75*
G02*
X3880350Y2624600I114250J0D01*
G01*
Y2853600D02*
G75*
G02*
X3969600Y2764350I0J-89250D01*
G01*
G75*
G02*
X3880350Y2675100I-89250J0D01*
G01*
G75*
G02*
X3791100Y2764350I0J89250D01*
G01*
G75*
G02*
X3880350Y2853600I89250J0D01*
G01*
X4192350Y2624600D02*
G75*
G02*
X4306600Y2510350I0J-114250D01*
G01*
G75*
G02*
X4192350Y2396100I-114250J0D01*
G01*
G75*
G02*
X4078100Y2510350I0J114250D01*
G01*
G75*
G02*
X4192350Y2624600I114250J0D01*
G01*
X4078400Y1332550D02*
Y1716150D01*
X4135550D01*
Y1836400D01*
X4078400D01*
Y2052300D01*
X4294300D01*
Y1836400D01*
X4237150D01*
Y1716150D01*
X4294300D01*
Y1332550D01*
X4226190D01*
G75*
G02*
X4166510I-29840J91800D01*
G01*
X4078400D01*
X4192350Y2853600D02*
G75*
G02*
X4281600Y2764350I0J-89250D01*
G01*
G75*
G02*
X4192350Y2675100I-89250J0D01*
G01*
G75*
G02*
X4103100Y2764350I0J89250D01*
G01*
G75*
G02*
X4192350Y2853600I89250J0D01*
G01*
X4446350D02*
G75*
G02*
X4535600Y2764350I0J-89250D01*
G01*
G75*
G02*
X4446350Y2675100I-89250J0D01*
G01*
G75*
G02*
X4357100Y2764350I0J89250D01*
G01*
G75*
G02*
X4446350Y2853600I89250J0D01*
G01*
X4700350Y2624600D02*
G75*
G02*
X4814600Y2510350I0J-114250D01*
G01*
G75*
G02*
X4700350Y2396100I-114250J0D01*
G01*
G75*
G02*
X4586100Y2510350I0J114250D01*
G01*
G75*
G02*
X4700350Y2624600I114250J0D01*
G01*
X4586400Y2052300D02*
X4802300D01*
Y1836400D01*
X4745150D01*
Y1716150D01*
X4804300D01*
Y1332550D01*
X4588400D01*
Y1716150D01*
X4643550D01*
Y1836400D01*
X4586400D01*
Y2052300D01*
X4592700Y1305950D02*
X4808600D01*
Y1102750D01*
X4592700D01*
Y1305950D01*
X4700350Y2853600D02*
G75*
G02*
X4789600Y2764350I0J-89250D01*
G01*
G75*
G02*
X4700350Y2675100I-89250J0D01*
G01*
G75*
G02*
X4611100Y2764350I0J89250D01*
G01*
G75*
G02*
X4700350Y2853600I89250J0D01*
G01*
X4992350Y2624600D02*
G75*
G02*
X5106600Y2510350I0J-114250D01*
G01*
G75*
G02*
X4992350Y2396100I-114250J0D01*
G01*
G75*
G02*
X4878100Y2510350I0J114250D01*
G01*
G75*
G02*
X4992350Y2624600I114250J0D01*
G01*
X4878400Y1332550D02*
Y1716150D01*
X4935550D01*
Y1836400D01*
X4878400D01*
Y2052300D01*
X5094300D01*
Y1836400D01*
X5037150D01*
Y1716150D01*
X5094300D01*
Y1332550D01*
X5011750D01*
G75*
G02*
X4960950I-25400J91790D01*
G01*
X4878400D01*
X4992350Y2853600D02*
G75*
G02*
X5081600Y2764350I0J-89250D01*
G01*
G75*
G02*
X4992350Y2675100I-89250J0D01*
G01*
G75*
G02*
X4903100Y2764350I0J89250D01*
G01*
G75*
G02*
X4992350Y2853600I89250J0D01*
G01*
X5246350D02*
G75*
G02*
X5335600Y2764350I0J-89250D01*
G01*
G75*
G02*
X5246350Y2675100I-89250J0D01*
G01*
G75*
G02*
X5157100Y2764350I0J89250D01*
G01*
G75*
G02*
X5246350Y2853600I89250J0D01*
G01*
X5500350Y2624600D02*
G75*
G02*
X5614600Y2510350I0J-114250D01*
G01*
G75*
G02*
X5500350Y2396100I-114250J0D01*
G01*
G75*
G02*
X5386100Y2510350I0J114250D01*
G01*
G75*
G02*
X5500350Y2624600I114250J0D01*
G01*
X5386400Y2052300D02*
X5602300D01*
Y1836400D01*
X5545150D01*
Y1716150D01*
X5604300D01*
Y1332550D01*
X5388400D01*
Y1716150D01*
X5443550D01*
Y1836400D01*
X5386400D01*
Y2052300D01*
X5392700Y1305950D02*
X5608600D01*
Y1102750D01*
X5392700D01*
Y1305950D01*
X5500350Y2853600D02*
G75*
G02*
X5589600Y2764350I0J-89250D01*
G01*
G75*
G02*
X5500350Y2675100I-89250J0D01*
G01*
G75*
G02*
X5411100Y2764350I0J89250D01*
G01*
G75*
G02*
X5500350Y2853600I89250J0D01*
G01*
X5792350Y2614600D02*
G75*
G02*
X5906600Y2500350I0J-114250D01*
G01*
G75*
G02*
X5792350Y2386100I-114250J0D01*
G01*
G75*
G02*
X5678100Y2500350I0J114250D01*
G01*
G75*
G02*
X5792350Y2614600I114250J0D01*
G01*
X5678400Y1332550D02*
Y1716150D01*
X5735550D01*
Y1836400D01*
X5678400D01*
Y2052300D01*
X5894300D01*
Y1836400D01*
X5837150D01*
Y1716150D01*
X5894300D01*
Y1332550D01*
X5826190D01*
G75*
G02*
X5766510I-29840J91800D01*
G01*
X5678400D01*
X5792350Y2843600D02*
G75*
G02*
X5881600Y2754350I0J-89250D01*
G01*
G75*
G02*
X5792350Y2665100I-89250J0D01*
G01*
G75*
G02*
X5703100Y2754350I0J89250D01*
G01*
G75*
G02*
X5792350Y2843600I89250J0D01*
G01*
X6046350D02*
G75*
G02*
X6135600Y2754350I0J-89250D01*
G01*
G75*
G02*
X6046350Y2665100I-89250J0D01*
G01*
G75*
G02*
X5957100Y2754350I0J89250D01*
G01*
G75*
G02*
X6046350Y2843600I89250J0D01*
G01*
X6300350Y2614600D02*
G75*
G02*
X6414600Y2500350I0J-114250D01*
G01*
G75*
G02*
X6300350Y2386100I-114250J0D01*
G01*
G75*
G02*
X6186100Y2500350I0J114250D01*
G01*
G75*
G02*
X6300350Y2614600I114250J0D01*
G01*
X6186400Y2052300D02*
X6402300D01*
Y1836400D01*
X6347150D01*
Y1706150D01*
X6404300D01*
Y1322550D01*
X6188400D01*
Y1706150D01*
X6245550D01*
Y1836400D01*
X6186400D01*
Y2052300D01*
X6192700Y1305950D02*
X6408600D01*
Y1102750D01*
X6192700D01*
Y1305950D01*
X6300350Y2843600D02*
G75*
G02*
X6389600Y2754350I0J-89250D01*
G01*
G75*
G02*
X6300350Y2665100I-89250J0D01*
G01*
G75*
G02*
X6211100Y2754350I0J89250D01*
G01*
G75*
G02*
X6300350Y2843600I89250J0D01*
G01*
X6592350Y2614600D02*
G75*
G02*
X6706600Y2500350I0J-114250D01*
G01*
G75*
G02*
X6592350Y2386100I-114250J0D01*
G01*
G75*
G02*
X6478100Y2500350I0J114250D01*
G01*
G75*
G02*
X6592350Y2614600I114250J0D01*
G01*
X6478400Y1322550D02*
Y1706150D01*
X6535550D01*
Y1836400D01*
X6478400D01*
Y2052300D01*
X6694300D01*
Y1836400D01*
X6637150D01*
Y1706150D01*
X6694300D01*
Y1322550D01*
X6587270D01*
G75*
G02*
X6585430I-920J96270D01*
G01*
X6478400D01*
X6592350Y2843600D02*
G75*
G02*
X6681600Y2754350I0J-89250D01*
G01*
G75*
G02*
X6592350Y2665100I-89250J0D01*
G01*
G75*
G02*
X6503100Y2754350I0J89250D01*
G01*
G75*
G02*
X6592350Y2843600I89250J0D01*
G01*
X6846350D02*
G75*
G02*
X6935600Y2754350I0J-89250D01*
G01*
G75*
G02*
X6846350Y2665100I-89250J0D01*
G01*
G75*
G02*
X6757100Y2754350I0J89250D01*
G01*
G75*
G02*
X6846350Y2843600I89250J0D01*
G01*
X7100350Y2614600D02*
G75*
G02*
X7214600Y2500350I0J-114250D01*
G01*
G75*
G02*
X7100350Y2386100I-114250J0D01*
G01*
G75*
G02*
X6986100Y2500350I0J114250D01*
G01*
G75*
G02*
X7100350Y2614600I114250J0D01*
G01*
X6986400Y2052300D02*
X7202300D01*
Y1836400D01*
X7145150D01*
Y1706150D01*
X7224300D01*
Y1322550D01*
X7008400D01*
Y1706150D01*
X7043550D01*
Y1836400D01*
X6986400D01*
Y2052300D01*
X7002700Y1305950D02*
X7218600D01*
Y1102750D01*
X7002700D01*
Y1305950D01*
X7100350Y2843600D02*
G75*
G02*
X7189600Y2754350I0J-89250D01*
G01*
G75*
G02*
X7100350Y2665100I-89250J0D01*
G01*
G75*
G02*
X7011100Y2754350I0J89250D01*
G01*
G75*
G02*
X7100350Y2843600I89250J0D01*
G01*
X7385100Y644350D02*
G75*
G02*
X7807600I211250J0D01*
G01*
G75*
G02*
X7385100I-211250J0D01*
G01*
Y2464350D02*
G75*
G02*
X7807600I211250J0D01*
G01*
G75*
G02*
X7385100I-211250J0D01*
G01*
X255100Y644350D02*
G75*
G02*
X677600I211250J0D01*
G01*
G75*
G02*
X255100I-211250J0D01*
G01*
X275100Y2464350D02*
G75*
G02*
X697600I211250J0D01*
G01*
G75*
G02*
X275100I-211250J0D01*
G01*
X299840Y514350D02*
G36*
X299840Y514350D02*
X83050D01*
G75*
G03*
X440030Y218800I433310J160010D01*
G01*
X7632670D01*
G75*
G03*
X7989650Y514350I-76330J455560D01*
G01*
X7762860D01*
G75*
G02*
X7429840I-166510J130000D01*
G01*
X5618300D01*
Y406400D01*
X5402400D01*
Y514350D01*
X5364300D01*
Y406400D01*
X5148400D01*
Y514350D01*
X4192300D01*
Y406400D01*
X3976400D01*
Y514350D01*
X3938300D01*
Y406400D01*
X3722400D01*
Y514350D01*
X3684300D01*
Y406400D01*
X3468400D01*
Y514350D01*
X3430300D01*
Y406400D01*
X3214400D01*
Y514350D01*
X3176300D01*
Y406400D01*
X2960400D01*
Y514350D01*
X2922300D01*
Y406400D01*
X2706400D01*
Y514350D01*
X2668300D01*
Y406400D01*
X2452400D01*
Y514350D01*
X2414300D01*
Y406400D01*
X2198400D01*
Y514350D01*
X632860D01*
G75*
G02*
X299840I-166510J130000D01*
G01*
G37*
X60800Y1204350D02*
G36*
X60800Y1204350D02*
Y598030D01*
G75*
G03*
X83050Y514350I455570J76330D01*
G01*
X299840D01*
G75*
G02*
X255100Y644350I166520J130010D01*
G01*
G75*
G02*
X677600I211250J0D01*
G01*
G75*
G02*
X632860Y514350I-211260J10D01*
G01*
X2198400D01*
Y622300D01*
X2255550D01*
Y793310D01*
X2215310Y833550D01*
X1486350D01*
G75*
G02*
X1450160Y848700I-10J50780D01*
G01*
X1206400Y1092460D01*
G75*
G02*
X1198350Y1102750I35150J35790D01*
G01*
X1134100D01*
Y1204350D01*
X60800D01*
G37*
X1350000Y1102750D02*
G36*
X1350000Y1102750D02*
X1339790D01*
X1507390Y935150D01*
X2089320D01*
G75*
G02*
X2087530Y940310I50910J20550D01*
G01*
X1989160Y1038680D01*
G75*
G02*
X1975900Y1070350I31190J31670D01*
G01*
Y1102750D01*
X1954100D01*
Y1204350D01*
X1578600D01*
Y1102750D01*
X1362700D01*
Y1204350D01*
X1350000D01*
Y1102750D01*
G37*
X2064800D02*
G36*
X2064800Y1102750D02*
Y1088760D01*
X2148410Y1005150D01*
X2470350D01*
G75*
G02*
X2506540Y990000I10J-50780D01*
G01*
X2596000Y900540D01*
G75*
G02*
X2611150Y864360I-35630J-36180D01*
G01*
G75*
G02*
Y864350I-63660J0D01*
G01*
Y622300D01*
X2668300D01*
Y514350D01*
X2706400D01*
Y622300D01*
X2775900D01*
Y1102750D01*
X2764100D01*
Y1204350D01*
X2398600D01*
Y1102750D01*
X2182700D01*
Y1204350D01*
X2170000D01*
Y1102750D01*
X2064800D01*
G37*
X2288990Y903550D02*
G36*
X2288990Y903550D02*
X2342000Y850540D01*
G75*
G02*
X2357150Y814360I-35630J-36180D01*
G01*
G75*
G02*
Y814350I-63660J0D01*
G01*
Y622300D01*
X2414300D01*
Y514350D01*
X2452400D01*
Y622300D01*
X2509550D01*
Y843310D01*
X2449310Y903550D01*
X2288990D01*
G37*
X2864800Y1102750D02*
G36*
X2864800Y1102750D02*
Y622300D01*
X2922300D01*
Y514350D01*
X2960400D01*
Y622300D01*
X3017550D01*
Y634350D01*
G75*
G02*
Y634360I63660J10D01*
G01*
G75*
G02*
X3032700Y670540I50780J0D01*
G01*
X3534100Y1171940D01*
Y1204350D01*
X3208600D01*
Y1102750D01*
X2992700D01*
Y1204350D01*
X2980000D01*
Y1102750D01*
X2864800D01*
G37*
X3176300Y622300D02*
G36*
X3176300Y622300D02*
Y514350D01*
X3214400D01*
Y622300D01*
X3271550D01*
Y754350D01*
G75*
G02*
X3273260Y767420I50890J-10D01*
G01*
X3128140Y622300D01*
X3176300D01*
G37*
X3373150Y733310D02*
G36*
X3373150Y733310D02*
Y622300D01*
X3430300D01*
Y514350D01*
X3468400D01*
Y622300D01*
X3525550D01*
Y784350D01*
G75*
G02*
Y784360I63660J10D01*
G01*
G75*
G02*
X3540700Y820540I50780J0D01*
G01*
X3623710Y903550D01*
X3543390D01*
X3373150Y733310D01*
G37*
X3509280Y1003440D02*
G36*
X3509280Y1003440D02*
G75*
G02*
X3522350Y1005150I13080J-49180D01*
G01*
X4225310D01*
X4364100Y1143940D01*
Y1204350D01*
X3978600D01*
Y1102750D01*
X3762700D01*
Y1204350D01*
X3750000D01*
Y1102750D01*
X3608590D01*
X3509280Y1003440D01*
G37*
X3627150Y763310D02*
G36*
X3627150Y763310D02*
Y622300D01*
X3684300D01*
Y514350D01*
X3722400D01*
Y622300D01*
X3779550D01*
Y724350D01*
G75*
G02*
Y724360I63660J10D01*
G01*
G75*
G02*
X3794700Y760540I50780J0D01*
G01*
X3867710Y833550D01*
X3697390D01*
X3627150Y763310D01*
G37*
X3881150Y703310D02*
G36*
X3881150Y703310D02*
Y622300D01*
X3938300D01*
Y514350D01*
X3976400D01*
Y622300D01*
X4033550D01*
Y684350D01*
G75*
G02*
Y684360I63660J10D01*
G01*
G75*
G02*
X4048700Y720540I50780J0D01*
G01*
X4091710Y763550D01*
X3941390D01*
X3881150Y703310D01*
G37*
X4135150Y663310D02*
G36*
X4135150Y663310D02*
Y622300D01*
X4192300D01*
Y514350D01*
X5148400D01*
Y622300D01*
X5364300D01*
Y514350D01*
X5402400D01*
Y622300D01*
X5618300D01*
Y514350D01*
X7429840D01*
G75*
G02*
X7385100Y644350I166520J130010D01*
G01*
G75*
G02*
X7807600I211250J0D01*
G01*
G75*
G02*
X7762860Y514350I-211260J10D01*
G01*
X7989650D01*
G75*
G03*
X8011900Y598030I-433320J160010D01*
G01*
Y1204350D01*
X7218600D01*
Y1102750D01*
X7002700D01*
Y1204350D01*
X6990000D01*
Y1102750D01*
X6932850D01*
Y890050D01*
G75*
G02*
Y890040I-63660J0D01*
G01*
G75*
G02*
X6917700Y853860I-50780J0D01*
G01*
X6772540Y708700D01*
G75*
G02*
X6736350Y693550I-36180J35630D01*
G01*
X4165390D01*
X4135150Y663310D01*
G37*
X4466590Y1102750D02*
G36*
X4466590Y1102750D02*
X4298990Y935150D01*
X4965310D01*
X5164100Y1133940D01*
Y1204350D01*
X4808600D01*
Y1102750D01*
X4592700D01*
Y1204350D01*
X4580000D01*
Y1102750D01*
X4466590D01*
G37*
X5276000Y1102160D02*
G36*
X5276000Y1102160D02*
X5038990Y865150D01*
X5895310D01*
X6021250Y991090D01*
Y1102750D01*
X5964100D01*
Y1204350D01*
X5608600D01*
Y1102750D01*
X5392700D01*
Y1204350D01*
X5380000D01*
Y1102750D01*
X5276590D01*
G75*
G02*
X5276000Y1102160I-9000J8410D01*
G01*
G37*
X6107700Y933860D02*
G36*
X6107700Y933860D02*
X5968990Y795150D01*
X6715310D01*
X6831250Y911090D01*
Y1102750D01*
X6774100D01*
Y1204350D01*
X6408600D01*
Y1102750D01*
X6192700D01*
Y1204350D01*
X6180000D01*
Y1102750D01*
X6122850D01*
Y970050D01*
G75*
G02*
Y970040I-63660J0D01*
G01*
G75*
G02*
X6107700Y933860I-50780J0D01*
G01*
G37*
X60800Y1690700D02*
G36*
X60800Y1690700D02*
Y1204350D01*
X1134100D01*
Y1305950D01*
X1175900D01*
Y1690700D01*
X1074300D01*
Y1332550D01*
X991750D01*
G75*
G02*
X940950I-25400J91780D01*
G01*
X858400D01*
Y1690700D01*
X60800D01*
G37*
X1264800D02*
G36*
X1264800Y1690700D02*
Y1305950D01*
X1350000D01*
Y1204350D01*
X1362700D01*
Y1305950D01*
X1578600D01*
Y1204350D01*
X1954100D01*
Y1305950D01*
X1975900D01*
Y1690700D01*
X1874300D01*
Y1332550D01*
X1791750D01*
G75*
G02*
X1740950I-25400J91780D01*
G01*
X1658400D01*
Y1690700D01*
X1584300D01*
Y1332550D01*
X1368400D01*
Y1690700D01*
X1264800D01*
G37*
X2064800D02*
G36*
X2064800Y1690700D02*
Y1305950D01*
X2170000D01*
Y1204350D01*
X2182700D01*
Y1305950D01*
X2398600D01*
Y1204350D01*
X2764100D01*
Y1305950D01*
X2775900D01*
Y1690700D01*
X2674300D01*
Y1332550D01*
X2591750D01*
G75*
G02*
X2540950I-25400J91780D01*
G01*
X2458400D01*
Y1690700D01*
X2384300D01*
Y1332550D01*
X2168400D01*
Y1690700D01*
X2064800D01*
G37*
X2864800D02*
G36*
X2864800Y1690700D02*
Y1305950D01*
X2980000D01*
Y1204350D01*
X2992700D01*
Y1305950D01*
X3208600D01*
Y1204350D01*
X3534100D01*
Y1305950D01*
X3569550D01*
Y1690700D01*
X3474300D01*
Y1332550D01*
X3391750D01*
G75*
G02*
X3340950I-25400J91780D01*
G01*
X3258400D01*
Y1690700D01*
X3194300D01*
Y1332550D01*
X2978400D01*
Y1690700D01*
X2864800D01*
G37*
X3671150D02*
G36*
X3671150Y1690700D02*
Y1305950D01*
X3750000D01*
Y1204350D01*
X3762700D01*
Y1305950D01*
X3978600D01*
Y1204350D01*
X4364100D01*
Y1305950D01*
X4389550D01*
Y1690700D01*
X4294300D01*
Y1332550D01*
X4226190D01*
G75*
G02*
X4166510I-29840J91760D01*
G01*
X4078400D01*
Y1690700D01*
X3974300D01*
Y1332550D01*
X3758400D01*
Y1690700D01*
X3671150D01*
G37*
X4491150D02*
G36*
X4491150Y1690700D02*
Y1305950D01*
X4580000D01*
Y1204350D01*
X4592700D01*
Y1305950D01*
X4808600D01*
Y1204350D01*
X5164100D01*
Y1305950D01*
X5189550D01*
Y1690700D01*
X5094300D01*
Y1332550D01*
X5011750D01*
G75*
G02*
X4960950I-25400J91780D01*
G01*
X4878400D01*
Y1690700D01*
X4804300D01*
Y1332550D01*
X4588400D01*
Y1690700D01*
X4491150D01*
G37*
X5291150D02*
G36*
X5291150Y1690700D02*
Y1305950D01*
X5380000D01*
Y1204350D01*
X5392700D01*
Y1305950D01*
X5608600D01*
Y1204350D01*
X5964100D01*
Y1305950D01*
X5989550D01*
Y1690700D01*
X5894300D01*
Y1332550D01*
X5826190D01*
G75*
G02*
X5766510I-29840J91760D01*
G01*
X5678400D01*
Y1690700D01*
X5604300D01*
Y1332550D01*
X5388400D01*
Y1690700D01*
X5291150D01*
G37*
X6091150D02*
G36*
X6091150Y1690700D02*
Y1305950D01*
X6180000D01*
Y1204350D01*
X6192700D01*
Y1305950D01*
X6408600D01*
Y1204350D01*
X6774100D01*
Y1305950D01*
X6789550D01*
Y1690700D01*
X6694300D01*
Y1322550D01*
X6587270D01*
X6585430D01*
X6478400D01*
Y1690700D01*
X6404300D01*
Y1322550D01*
X6188400D01*
Y1690700D01*
X6091150D01*
G37*
X6891150D02*
G36*
X6891150Y1690700D02*
Y1305950D01*
X6990000D01*
Y1204350D01*
X7002700D01*
Y1305950D01*
X7218600D01*
Y1204350D01*
X8011900D01*
Y1690700D01*
X7224300D01*
Y1322550D01*
X7008400D01*
Y1690700D01*
X6891150D01*
G37*
X60800Y2510350D02*
G36*
X60800Y2510350D02*
Y1690700D01*
X858400D01*
Y1716150D01*
X915550D01*
Y1836400D01*
X858400D01*
Y2052300D01*
X1074300D01*
Y1836400D01*
X1017150D01*
Y1716150D01*
X1074300D01*
Y1690700D01*
X1175900D01*
Y1836400D01*
X1112400D01*
Y2052300D01*
X1175550D01*
Y2408020D01*
G75*
G02*
X1112100Y2510350I50800J102330D01*
G01*
X1086600D01*
G75*
G02*
Y2510340I-114590J0D01*
G01*
G75*
G02*
X972350Y2396100I-114250J0D01*
G01*
G75*
G02*
X858100Y2510340I0J114240D01*
G01*
G75*
G02*
Y2510350I114590J10D01*
G01*
X692530D01*
G75*
G02*
X697600Y2464350I-206180J-46000D01*
G01*
G75*
G02*
X275100I-211250J0D01*
G01*
G75*
G02*
X280170Y2510350I211250J0D01*
G01*
X60800D01*
G37*
X1264800Y1836400D02*
G36*
X1264800Y1836400D02*
Y1690700D01*
X1368400D01*
Y1716150D01*
X1423550D01*
Y1836400D01*
X1366400D01*
Y2052300D01*
X1582300D01*
Y1836400D01*
X1525150D01*
Y1716150D01*
X1584300D01*
Y1690700D01*
X1658400D01*
Y1716150D01*
X1715550D01*
Y1836400D01*
X1658400D01*
Y2052300D01*
X1874300D01*
Y1836400D01*
X1817150D01*
Y1716150D01*
X1874300D01*
Y1690700D01*
X1975900D01*
Y1836400D01*
X1912400D01*
Y2052300D01*
X1975550D01*
Y2408020D01*
G75*
G02*
X1912100Y2510350I50800J102330D01*
G01*
X1886600D01*
G75*
G02*
Y2510340I-114590J0D01*
G01*
G75*
G02*
X1772350Y2396100I-114250J0D01*
G01*
G75*
G02*
X1658100Y2510340I0J114240D01*
G01*
G75*
G02*
Y2510350I114590J10D01*
G01*
X1594600D01*
G75*
G02*
Y2510340I-114590J0D01*
G01*
G75*
G02*
X1480350Y2396100I-114250J0D01*
G01*
G75*
G02*
X1366100Y2510340I0J114240D01*
G01*
G75*
G02*
Y2510350I114590J10D01*
G01*
X1340600D01*
G75*
G02*
X1277150Y2408020I-114250J0D01*
G01*
Y2052300D01*
X1328300D01*
Y1836400D01*
X1264800D01*
G37*
X2064800D02*
G36*
X2064800Y1836400D02*
Y1690700D01*
X2168400D01*
Y1716150D01*
X2223550D01*
Y1836400D01*
X2166400D01*
Y2052300D01*
X2382300D01*
Y1836400D01*
X2325150D01*
Y1716150D01*
X2384300D01*
Y1690700D01*
X2458400D01*
Y1716150D01*
X2515550D01*
Y1836400D01*
X2458400D01*
Y2052300D01*
X2674300D01*
Y1836400D01*
X2617150D01*
Y1716150D01*
X2674300D01*
Y1690700D01*
X2775900D01*
Y1836400D01*
X2712400D01*
Y2052300D01*
X2775550D01*
Y2408020D01*
G75*
G02*
X2712100Y2510350I50800J102330D01*
G01*
X2686600D01*
G75*
G02*
Y2510340I-114590J0D01*
G01*
G75*
G02*
X2572350Y2396100I-114250J0D01*
G01*
G75*
G02*
X2458100Y2510340I0J114240D01*
G01*
G75*
G02*
Y2510350I114590J10D01*
G01*
X2394600D01*
G75*
G02*
Y2510340I-114590J0D01*
G01*
G75*
G02*
X2280350Y2396100I-114250J0D01*
G01*
G75*
G02*
X2166100Y2510340I0J114240D01*
G01*
G75*
G02*
Y2510350I114590J10D01*
G01*
X2140600D01*
G75*
G02*
X2077150Y2408020I-114250J0D01*
G01*
Y2052300D01*
X2128300D01*
Y1836400D01*
X2064800D01*
G37*
X2864800D02*
G36*
X2864800Y1836400D02*
Y1690700D01*
X2978400D01*
Y1716150D01*
X3023550D01*
Y1836400D01*
X2966400D01*
Y2052300D01*
X3182300D01*
Y1836400D01*
X3125150D01*
Y1716150D01*
X3194300D01*
Y1690700D01*
X3258400D01*
Y1716150D01*
X3315550D01*
Y1836400D01*
X3258400D01*
Y2052300D01*
X3474300D01*
Y1836400D01*
X3417150D01*
Y1716150D01*
X3474300D01*
Y1690700D01*
X3569550D01*
Y1836400D01*
X3512400D01*
Y2052300D01*
X3575550D01*
Y2408020D01*
G75*
G02*
X3512100Y2510350I50800J102330D01*
G01*
X3486600D01*
G75*
G02*
Y2510340I-114590J0D01*
G01*
G75*
G02*
X3372350Y2396100I-114250J0D01*
G01*
G75*
G02*
X3258100Y2510340I0J114240D01*
G01*
G75*
G02*
Y2510350I114590J10D01*
G01*
X3194600D01*
G75*
G02*
Y2510340I-114590J0D01*
G01*
G75*
G02*
X3080350Y2396100I-114250J0D01*
G01*
G75*
G02*
X2966100Y2510340I0J114240D01*
G01*
G75*
G02*
Y2510350I114590J10D01*
G01*
X2940600D01*
G75*
G02*
X2877150Y2408020I-114250J0D01*
G01*
Y2052300D01*
X2928300D01*
Y1836400D01*
X2864800D01*
G37*
X3671150D02*
G36*
X3671150Y1836400D02*
Y1690700D01*
X3758400D01*
Y1716150D01*
X3823550D01*
Y1836400D01*
X3766400D01*
Y2052300D01*
X3982300D01*
Y1836400D01*
X3925150D01*
Y1716150D01*
X3974300D01*
Y1690700D01*
X4078400D01*
Y1716150D01*
X4135550D01*
Y1836400D01*
X4078400D01*
Y2052300D01*
X4294300D01*
Y1836400D01*
X4237150D01*
Y1716150D01*
X4294300D01*
Y1690700D01*
X4389550D01*
Y1836400D01*
X4332400D01*
Y2052300D01*
X4395550D01*
Y2408020D01*
G75*
G02*
X4332100Y2510350I50800J102330D01*
G01*
X4306600D01*
G75*
G02*
Y2510340I-114590J0D01*
G01*
G75*
G02*
X4192350Y2396100I-114250J0D01*
G01*
G75*
G02*
X4078100Y2510340I0J114240D01*
G01*
G75*
G02*
Y2510350I114590J10D01*
G01*
X3994600D01*
G75*
G02*
Y2510340I-114590J0D01*
G01*
G75*
G02*
X3880350Y2396100I-114250J0D01*
G01*
G75*
G02*
X3766100Y2510340I0J114240D01*
G01*
G75*
G02*
Y2510350I114590J10D01*
G01*
X3740600D01*
G75*
G02*
X3677150Y2408020I-114250J0D01*
G01*
Y2052300D01*
X3728300D01*
Y1836400D01*
X3671150D01*
G37*
X4491150D02*
G36*
X4491150Y1836400D02*
Y1690700D01*
X4588400D01*
Y1716150D01*
X4643550D01*
Y1836400D01*
X4586400D01*
Y2052300D01*
X4802300D01*
Y1836400D01*
X4745150D01*
Y1716150D01*
X4804300D01*
Y1690700D01*
X4878400D01*
Y1716150D01*
X4935550D01*
Y1836400D01*
X4878400D01*
Y2052300D01*
X5094300D01*
Y1836400D01*
X5037150D01*
Y1716150D01*
X5094300D01*
Y1690700D01*
X5189550D01*
Y1836400D01*
X5132400D01*
Y2052300D01*
X5195550D01*
Y2408020D01*
G75*
G02*
X5132100Y2510350I50800J102330D01*
G01*
X5106600D01*
G75*
G02*
Y2510340I-114590J0D01*
G01*
G75*
G02*
X4992350Y2396100I-114250J0D01*
G01*
G75*
G02*
X4878100Y2510340I0J114240D01*
G01*
G75*
G02*
Y2510350I114590J10D01*
G01*
X4814600D01*
G75*
G02*
Y2510340I-114590J0D01*
G01*
G75*
G02*
X4700350Y2396100I-114250J0D01*
G01*
G75*
G02*
X4586100Y2510340I0J114240D01*
G01*
G75*
G02*
Y2510350I114590J10D01*
G01*
X4560600D01*
G75*
G02*
X4497150Y2408020I-114250J0D01*
G01*
Y2052300D01*
X4548300D01*
Y1836400D01*
X4491150D01*
G37*
X5291150D02*
G36*
X5291150Y1836400D02*
Y1690700D01*
X5388400D01*
Y1716150D01*
X5443550D01*
Y1836400D01*
X5386400D01*
Y2052300D01*
X5602300D01*
Y1836400D01*
X5545150D01*
Y1716150D01*
X5604300D01*
Y1690700D01*
X5678400D01*
Y1716150D01*
X5735550D01*
Y1836400D01*
X5678400D01*
Y2052300D01*
X5894300D01*
Y1836400D01*
X5837150D01*
Y1716150D01*
X5894300D01*
Y1690700D01*
X5989550D01*
Y1836400D01*
X5932400D01*
Y2052300D01*
X5995550D01*
Y2398020D01*
G75*
G02*
X5932100Y2500350I50800J102330D01*
G01*
G75*
G02*
X5932540Y2510350I114280J-20D01*
G01*
X5906160D01*
G75*
G02*
X5906600Y2500360I-113820J-10020D01*
G01*
G75*
G02*
Y2500350I-114590J0D01*
G01*
G75*
G02*
Y2500340I-114590J0D01*
G01*
G75*
G02*
X5792350Y2386100I-114250J0D01*
G01*
G75*
G02*
X5678100Y2500340I0J114240D01*
G01*
G75*
G02*
Y2500350I114590J10D01*
G01*
G75*
G02*
Y2500360I114590J10D01*
G01*
G75*
G02*
X5678540Y2510350I114260J-30D01*
G01*
X5614600D01*
G75*
G02*
Y2510340I-114590J0D01*
G01*
G75*
G02*
X5500350Y2396100I-114250J0D01*
G01*
G75*
G02*
X5386100Y2510340I0J114240D01*
G01*
G75*
G02*
Y2510350I114590J10D01*
G01*
X5360600D01*
G75*
G02*
X5297150Y2408020I-114250J0D01*
G01*
Y2052300D01*
X5348300D01*
Y1836400D01*
X5291150D01*
G37*
X6091150D02*
G36*
X6091150Y1836400D02*
Y1690700D01*
X6188400D01*
Y1706150D01*
X6245550D01*
Y1836400D01*
X6186400D01*
Y2052300D01*
X6402300D01*
Y1836400D01*
X6347150D01*
Y1706150D01*
X6404300D01*
Y1690700D01*
X6478400D01*
Y1706150D01*
X6535550D01*
Y1836400D01*
X6478400D01*
Y2052300D01*
X6694300D01*
Y1836400D01*
X6637150D01*
Y1706150D01*
X6694300D01*
Y1690700D01*
X6789550D01*
Y1836400D01*
X6732400D01*
Y2052300D01*
X6795550D01*
Y2398020D01*
G75*
G02*
X6732100Y2500350I50800J102330D01*
G01*
G75*
G02*
X6732540Y2510350I114280J-20D01*
G01*
X6706160D01*
G75*
G02*
X6706600Y2500360I-113820J-10020D01*
G01*
G75*
G02*
Y2500350I-114590J0D01*
G01*
G75*
G02*
Y2500340I-114590J0D01*
G01*
G75*
G02*
X6592350Y2386100I-114250J0D01*
G01*
G75*
G02*
X6478100Y2500340I0J114240D01*
G01*
G75*
G02*
Y2500350I114590J10D01*
G01*
G75*
G02*
Y2500360I114590J10D01*
G01*
G75*
G02*
X6478540Y2510350I114260J-30D01*
G01*
X6414160D01*
G75*
G02*
X6414600Y2500360I-113820J-10020D01*
G01*
G75*
G02*
Y2500350I-114590J0D01*
G01*
G75*
G02*
Y2500340I-114590J0D01*
G01*
G75*
G02*
X6300350Y2386100I-114250J0D01*
G01*
G75*
G02*
X6186100Y2500340I0J114240D01*
G01*
G75*
G02*
Y2500350I114590J10D01*
G01*
G75*
G02*
Y2500360I114590J10D01*
G01*
G75*
G02*
X6186540Y2510350I114260J-30D01*
G01*
X6160160D01*
G75*
G02*
X6160600Y2500350I-113840J-10020D01*
G01*
G75*
G02*
X6097150Y2398020I-114250J0D01*
G01*
Y2052300D01*
X6148300D01*
Y1836400D01*
X6091150D01*
G37*
X6891150D02*
G36*
X6891150Y1836400D02*
Y1690700D01*
X7008400D01*
Y1706150D01*
X7043550D01*
Y1836400D01*
X6986400D01*
Y2052300D01*
X7202300D01*
Y1836400D01*
X7145150D01*
Y1706150D01*
X7224300D01*
Y1690700D01*
X8011900D01*
Y2510350D01*
X7802530D01*
G75*
G02*
X7807600Y2464350I-206180J-46000D01*
G01*
G75*
G02*
X7385100I-211250J0D01*
G01*
G75*
G02*
X7390170Y2510350I211250J0D01*
G01*
X7214160D01*
G75*
G02*
X7214600Y2500360I-113820J-10020D01*
G01*
G75*
G02*
Y2500350I-114590J0D01*
G01*
G75*
G02*
Y2500340I-114590J0D01*
G01*
G75*
G02*
X7100350Y2386100I-114250J0D01*
G01*
G75*
G02*
X6986100Y2500340I0J114240D01*
G01*
G75*
G02*
Y2500350I114590J10D01*
G01*
G75*
G02*
Y2500360I114590J10D01*
G01*
G75*
G02*
X6986540Y2510350I114260J-30D01*
G01*
X6960160D01*
G75*
G02*
X6960600Y2500350I-113840J-10020D01*
G01*
G75*
G02*
X6897150Y2398020I-114250J0D01*
G01*
Y2052300D01*
X6948300D01*
Y1836400D01*
X6891150D01*
G37*
X60800Y2660670D02*
G36*
X60800Y2660670D02*
Y2510350D01*
X280170D01*
G75*
G02*
X692530I206180J-46000D01*
G01*
X858100D01*
G75*
G02*
Y2510360I114590J10D01*
G01*
G75*
G02*
X972350Y2624600I114250J0D01*
G01*
G75*
G02*
X1086600Y2510360I0J-114240D01*
G01*
G75*
G02*
Y2510350I-114590J0D01*
G01*
X1112100D01*
G75*
G02*
X1226350Y2624600I114250J0D01*
G01*
G75*
G02*
X1340600Y2510350I0J-114250D01*
G01*
X1366100D01*
G75*
G02*
Y2510360I114590J10D01*
G01*
G75*
G02*
X1480350Y2624600I114250J0D01*
G01*
G75*
G02*
X1594600Y2510360I0J-114240D01*
G01*
G75*
G02*
Y2510350I-114590J0D01*
G01*
X1658100D01*
G75*
G02*
Y2510360I114590J10D01*
G01*
G75*
G02*
X1772350Y2624600I114250J0D01*
G01*
G75*
G02*
X1886600Y2510360I0J-114240D01*
G01*
G75*
G02*
Y2510350I-114590J0D01*
G01*
X1912100D01*
G75*
G02*
X2026350Y2624600I114250J0D01*
G01*
G75*
G02*
X2140600Y2510350I0J-114250D01*
G01*
X2166100D01*
G75*
G02*
Y2510360I114590J10D01*
G01*
G75*
G02*
X2280350Y2624600I114250J0D01*
G01*
G75*
G02*
X2394600Y2510360I0J-114240D01*
G01*
G75*
G02*
Y2510350I-114590J0D01*
G01*
X2458100D01*
G75*
G02*
Y2510360I114590J10D01*
G01*
G75*
G02*
X2572350Y2624600I114250J0D01*
G01*
G75*
G02*
X2686600Y2510360I0J-114240D01*
G01*
G75*
G02*
Y2510350I-114590J0D01*
G01*
X2712100D01*
G75*
G02*
X2826350Y2624600I114250J0D01*
G01*
G75*
G02*
X2940600Y2510350I0J-114250D01*
G01*
X2966100D01*
G75*
G02*
Y2510360I114590J10D01*
G01*
G75*
G02*
X3080350Y2624600I114250J0D01*
G01*
G75*
G02*
X3194600Y2510360I0J-114240D01*
G01*
G75*
G02*
Y2510350I-114590J0D01*
G01*
X3258100D01*
G75*
G02*
Y2510360I114590J10D01*
G01*
G75*
G02*
X3372350Y2624600I114250J0D01*
G01*
G75*
G02*
X3486600Y2510360I0J-114240D01*
G01*
G75*
G02*
Y2510350I-114590J0D01*
G01*
X3512100D01*
G75*
G02*
X3626350Y2624600I114250J0D01*
G01*
G75*
G02*
X3740600Y2510350I0J-114250D01*
G01*
X3766100D01*
G75*
G02*
Y2510360I114590J10D01*
G01*
G75*
G02*
X3880350Y2624600I114250J0D01*
G01*
G75*
G02*
X3994600Y2510360I0J-114240D01*
G01*
G75*
G02*
Y2510350I-114590J0D01*
G01*
X4078100D01*
G75*
G02*
Y2510360I114590J10D01*
G01*
G75*
G02*
X4192350Y2624600I114250J0D01*
G01*
G75*
G02*
X4306600Y2510360I0J-114240D01*
G01*
G75*
G02*
Y2510350I-114590J0D01*
G01*
X4332100D01*
G75*
G02*
X4446350Y2624600I114250J0D01*
G01*
G75*
G02*
X4560600Y2510350I0J-114250D01*
G01*
X4586100D01*
G75*
G02*
Y2510360I114590J10D01*
G01*
G75*
G02*
X4700350Y2624600I114250J0D01*
G01*
G75*
G02*
X4814600Y2510360I0J-114240D01*
G01*
G75*
G02*
Y2510350I-114590J0D01*
G01*
X4878100D01*
G75*
G02*
Y2510360I114590J10D01*
G01*
G75*
G02*
X4992350Y2624600I114250J0D01*
G01*
G75*
G02*
X5106600Y2510360I0J-114240D01*
G01*
G75*
G02*
Y2510350I-114590J0D01*
G01*
X5132100D01*
G75*
G02*
X5246350Y2624600I114250J0D01*
G01*
G75*
G02*
X5360600Y2510350I0J-114250D01*
G01*
X5386100D01*
G75*
G02*
Y2510360I114590J10D01*
G01*
G75*
G02*
X5500350Y2624600I114250J0D01*
G01*
G75*
G02*
X5614600Y2510360I0J-114240D01*
G01*
G75*
G02*
Y2510350I-114590J0D01*
G01*
X5678540D01*
G75*
G02*
X5792350Y2614600I113800J-9990D01*
G01*
G75*
G02*
X5906160Y2510350I10J-114240D01*
G01*
X5932540D01*
G75*
G02*
X6046350Y2614600I113810J-10000D01*
G01*
G75*
G02*
X6160160Y2510350I0J-114250D01*
G01*
X6186540D01*
G75*
G02*
X6300350Y2614600I113800J-9990D01*
G01*
G75*
G02*
X6414160Y2510350I10J-114240D01*
G01*
X6478540D01*
G75*
G02*
X6592350Y2614600I113800J-9990D01*
G01*
G75*
G02*
X6706160Y2510350I10J-114240D01*
G01*
X6732540D01*
G75*
G02*
X6846350Y2614600I113810J-10000D01*
G01*
G75*
G02*
X6960160Y2510350I0J-114250D01*
G01*
X6986540D01*
G75*
G02*
X7100350Y2614600I113800J-9990D01*
G01*
G75*
G02*
X7214160Y2510350I10J-114240D01*
G01*
X7390170D01*
G75*
G02*
X7802530I206180J-46000D01*
G01*
X8011900D01*
Y2660670D01*
G75*
G03*
X7981730Y2764350I-455580J-76340D01*
G01*
X7189040D01*
G75*
G02*
X7189600Y2754350I-88720J-9980D01*
G01*
G75*
G02*
X7100350Y2665100I-89250J0D01*
G01*
G75*
G02*
X7011100Y2754350I0J89250D01*
G01*
G75*
G02*
X7011660Y2764350I89280J20D01*
G01*
X6935040D01*
G75*
G02*
X6935600Y2754350I-88720J-9980D01*
G01*
G75*
G02*
X6846350Y2665100I-89250J0D01*
G01*
G75*
G02*
X6757100Y2754350I0J89250D01*
G01*
G75*
G02*
X6757660Y2764350I89280J20D01*
G01*
X6681040D01*
G75*
G02*
X6681600Y2754350I-88720J-9980D01*
G01*
G75*
G02*
X6592350Y2665100I-89250J0D01*
G01*
G75*
G02*
X6503100Y2754350I0J89250D01*
G01*
G75*
G02*
X6503660Y2764350I89280J20D01*
G01*
X6389040D01*
G75*
G02*
X6389600Y2754350I-88720J-9980D01*
G01*
G75*
G02*
X6300350Y2665100I-89250J0D01*
G01*
G75*
G02*
X6211100Y2754350I0J89250D01*
G01*
G75*
G02*
X6211660Y2764350I89280J20D01*
G01*
X6135040D01*
G75*
G02*
X6135600Y2754350I-88720J-9980D01*
G01*
G75*
G02*
X6046350Y2665100I-89250J0D01*
G01*
G75*
G02*
X5957100Y2754350I0J89250D01*
G01*
G75*
G02*
X5957660Y2764350I89280J20D01*
G01*
X5881040D01*
G75*
G02*
X5881600Y2754350I-88720J-9980D01*
G01*
G75*
G02*
X5792350Y2665100I-89250J0D01*
G01*
G75*
G02*
X5703100Y2754350I0J89250D01*
G01*
G75*
G02*
X5703660Y2764350I89280J20D01*
G01*
X5589600D01*
G75*
G02*
X5500350Y2675100I-89250J0D01*
G01*
G75*
G02*
X5411100Y2764350I0J89250D01*
G01*
X5335600D01*
G75*
G02*
X5246350Y2675100I-89250J0D01*
G01*
G75*
G02*
X5157100Y2764350I0J89250D01*
G01*
X5081600D01*
G75*
G02*
X4992350Y2675100I-89250J0D01*
G01*
G75*
G02*
X4903100Y2764350I0J89250D01*
G01*
X4789600D01*
G75*
G02*
X4700350Y2675100I-89250J0D01*
G01*
G75*
G02*
X4611100Y2764350I0J89250D01*
G01*
X4535600D01*
G75*
G02*
X4446350Y2675100I-89250J0D01*
G01*
G75*
G02*
X4357100Y2764350I0J89250D01*
G01*
X4281600D01*
G75*
G02*
X4192350Y2675100I-89250J0D01*
G01*
G75*
G02*
X4103100Y2764350I0J89250D01*
G01*
X3969600D01*
G75*
G02*
X3880350Y2675100I-89250J0D01*
G01*
G75*
G02*
X3791100Y2764350I0J89250D01*
G01*
X3715600D01*
G75*
G02*
X3626350Y2675100I-89250J0D01*
G01*
G75*
G02*
X3537100Y2764350I0J89250D01*
G01*
X3461600D01*
G75*
G02*
X3372350Y2675100I-89250J0D01*
G01*
G75*
G02*
X3283100Y2764350I0J89250D01*
G01*
X3169600D01*
G75*
G02*
X3080350Y2675100I-89250J0D01*
G01*
G75*
G02*
X2991100Y2764350I0J89250D01*
G01*
X2915600D01*
G75*
G02*
X2826350Y2675100I-89250J0D01*
G01*
G75*
G02*
X2737100Y2764350I0J89250D01*
G01*
X2661600D01*
G75*
G02*
X2572350Y2675100I-89250J0D01*
G01*
G75*
G02*
X2483100Y2764350I0J89250D01*
G01*
X2369600D01*
G75*
G02*
X2280350Y2675100I-89250J0D01*
G01*
G75*
G02*
X2191100Y2764350I0J89250D01*
G01*
X2115600D01*
G75*
G02*
X2026350Y2675100I-89250J0D01*
G01*
G75*
G02*
X1937100Y2764350I0J89250D01*
G01*
X1861600D01*
G75*
G02*
X1772350Y2675100I-89250J0D01*
G01*
G75*
G02*
X1683100Y2764350I0J89250D01*
G01*
X1569600D01*
G75*
G02*
X1480350Y2675100I-89250J0D01*
G01*
G75*
G02*
X1391100Y2764350I0J89250D01*
G01*
X1315600D01*
G75*
G02*
X1226350Y2675100I-89250J0D01*
G01*
G75*
G02*
X1137100Y2764350I0J89250D01*
G01*
X1061600D01*
G75*
G02*
X972350Y2675100I-89250J0D01*
G01*
G75*
G02*
X883100Y2764350I0J89250D01*
G01*
X90970D01*
G75*
G03*
X60800Y2660670I425410J-180020D01*
G01*
G37*
X440030Y3039900D02*
G36*
X440030Y3039900D02*
G75*
G03*
X90970Y2764350I76330J-455560D01*
G01*
X883100D01*
G75*
G02*
X972350Y2853600I89250J0D01*
G01*
G75*
G02*
X1061600Y2764350I0J-89250D01*
G01*
X1137100D01*
G75*
G02*
X1226350Y2853600I89250J0D01*
G01*
G75*
G02*
X1315600Y2764350I0J-89250D01*
G01*
X1391100D01*
G75*
G02*
X1480350Y2853600I89250J0D01*
G01*
G75*
G02*
X1569600Y2764350I0J-89250D01*
G01*
X1683100D01*
G75*
G02*
X1772350Y2853600I89250J0D01*
G01*
G75*
G02*
X1861600Y2764350I0J-89250D01*
G01*
X1937100D01*
G75*
G02*
X2026350Y2853600I89250J0D01*
G01*
G75*
G02*
X2115600Y2764350I0J-89250D01*
G01*
X2191100D01*
G75*
G02*
X2280350Y2853600I89250J0D01*
G01*
G75*
G02*
X2369600Y2764350I0J-89250D01*
G01*
X2483100D01*
G75*
G02*
X2572350Y2853600I89250J0D01*
G01*
G75*
G02*
X2661600Y2764350I0J-89250D01*
G01*
X2737100D01*
G75*
G02*
X2826350Y2853600I89250J0D01*
G01*
G75*
G02*
X2915600Y2764350I0J-89250D01*
G01*
X2991100D01*
G75*
G02*
X3080350Y2853600I89250J0D01*
G01*
G75*
G02*
X3169600Y2764350I0J-89250D01*
G01*
X3283100D01*
G75*
G02*
X3372350Y2853600I89250J0D01*
G01*
G75*
G02*
X3461600Y2764350I0J-89250D01*
G01*
X3537100D01*
G75*
G02*
X3626350Y2853600I89250J0D01*
G01*
G75*
G02*
X3715600Y2764350I0J-89250D01*
G01*
X3791100D01*
G75*
G02*
X3880350Y2853600I89250J0D01*
G01*
G75*
G02*
X3969600Y2764350I0J-89250D01*
G01*
X4103100D01*
G75*
G02*
X4192350Y2853600I89250J0D01*
G01*
G75*
G02*
X4281600Y2764350I0J-89250D01*
G01*
X4357100D01*
G75*
G02*
X4446350Y2853600I89250J0D01*
G01*
G75*
G02*
X4535600Y2764350I0J-89250D01*
G01*
X4611100D01*
G75*
G02*
X4700350Y2853600I89250J0D01*
G01*
G75*
G02*
X4789600Y2764350I0J-89250D01*
G01*
X4903100D01*
G75*
G02*
X4992350Y2853600I89250J0D01*
G01*
G75*
G02*
X5081600Y2764350I0J-89250D01*
G01*
X5157100D01*
G75*
G02*
X5246350Y2853600I89250J0D01*
G01*
G75*
G02*
X5335600Y2764350I0J-89250D01*
G01*
X5411100D01*
G75*
G02*
X5500350Y2853600I89250J0D01*
G01*
G75*
G02*
X5589600Y2764350I0J-89250D01*
G01*
X5703660D01*
G75*
G02*
X5792350Y2843600I88690J-10000D01*
G01*
G75*
G02*
X5881040Y2764350I0J-89250D01*
G01*
X5957660D01*
G75*
G02*
X6046350Y2843600I88690J-10000D01*
G01*
G75*
G02*
X6135040Y2764350I0J-89250D01*
G01*
X6211660D01*
G75*
G02*
X6300350Y2843600I88690J-10000D01*
G01*
G75*
G02*
X6389040Y2764350I0J-89250D01*
G01*
X6503660D01*
G75*
G02*
X6592350Y2843600I88690J-10000D01*
G01*
G75*
G02*
X6681040Y2764350I0J-89250D01*
G01*
X6757660D01*
G75*
G02*
X6846350Y2843600I88690J-10000D01*
G01*
G75*
G02*
X6935040Y2764350I0J-89250D01*
G01*
X7011660D01*
G75*
G02*
X7100350Y2843600I88690J-10000D01*
G01*
G75*
G02*
X7189040Y2764350I0J-89250D01*
G01*
X7981730D01*
G75*
G03*
X7632670Y3039900I-425390J-180010D01*
G01*
X440030D01*
G37*
D02*
D16*
X966350Y1944350D02*
Y1619600D01*
X1226350Y2510350D02*
Y1950350D01*
X1220350Y1944350D01*
X1242050Y1204350D02*
Y1128650D01*
X1486350Y884350D01*
X2236350D01*
X2306350Y814350D01*
Y514350D01*
X1474350Y1944350D02*
Y1621600D01*
X1476350Y1619600D01*
X1766350Y1944350D02*
Y1619600D01*
X2026350Y2510350D02*
Y1950350D01*
X2020350Y1944350D01*
X2136350Y954350D02*
X2470350D01*
X2560350Y864350D01*
Y514350D01*
X2274350Y1944350D02*
Y1621600D01*
X2276350Y1619600D01*
X2566350Y1944350D02*
Y1619600D01*
X2826350Y2510350D02*
Y1950350D01*
X2820350Y1944350D01*
X2872050Y1204350D02*
X2876350D01*
Y1164350D01*
X2886350D01*
X3074350Y1944350D02*
Y1631600D01*
X3086350Y1619600D01*
X3366350Y1944350D02*
Y1619600D01*
X3620350Y1944350D02*
Y1186350D01*
X3068350Y634350D01*
Y514350D01*
X3626350Y2510350D02*
Y1950350D01*
X3620350Y1944350D01*
X3874350D02*
Y1627600D01*
X3866350Y1619600D01*
X4186350Y1944350D02*
Y1619600D01*
X4440350Y1944350D02*
Y1148350D01*
X4246350Y954350D01*
X3522350D01*
X3322350Y754350D01*
Y514350D01*
X4446350Y2510350D02*
Y1950350D01*
X4440350Y1944350D01*
X4694350D02*
Y1621600D01*
X4696350Y1619600D01*
X4986350Y1944350D02*
Y1619600D01*
X5240350Y1944350D02*
Y1138350D01*
X4986350Y884350D01*
X3676350D01*
X3576350Y784350D01*
Y514350D01*
X5246350Y2510350D02*
Y1950350D01*
X5240350Y1944350D01*
X5494350D02*
Y1621600D01*
X5496350Y1619600D01*
X5786350Y1944350D02*
Y1619600D01*
X6040350Y1944350D02*
Y1236050D01*
X6072050Y1204350D01*
X6046350Y2500350D02*
Y1950350D01*
X6040350Y1944350D01*
X6072050Y1204350D02*
Y970050D01*
X5916350Y814350D01*
X3920350D01*
X3830350Y724350D01*
Y514350D01*
X6296350Y1609600D02*
Y1942350D01*
X6294350Y1944350D01*
X6586350D02*
Y1609600D01*
X6840350Y1944350D02*
Y1246050D01*
X6882050Y1204350D01*
X6846350Y2500350D02*
Y1950350D01*
X6840350Y1944350D01*
X6882050Y1204350D02*
Y890050D01*
X6736350Y744350D01*
X4144350D01*
X4084350Y684350D01*
Y514350D01*
X7094350Y1944350D02*
Y1631600D01*
X7116350Y1609600D01*
D02*
D17*
X966350Y1429100D02*
Y1424350D01*
X1476350Y1429100D02*
Y1210050D01*
X1470650Y1204350D01*
X1766350Y1429100D02*
Y1424350D01*
X2566350Y1429100D02*
Y1424350D01*
X3086350Y1429100D02*
Y1218650D01*
X3100650Y1204350D01*
X3366350Y1429100D02*
Y1424350D01*
X3866350Y1429100D02*
Y1208650D01*
X3870650Y1204350D01*
X4186350Y1429100D02*
X4196350Y1424350D01*
X4696350Y1429100D02*
Y1208650D01*
X4700650Y1204350D01*
X4986350Y1429100D02*
Y1424350D01*
X5496350Y1429100D02*
Y1208650D01*
X5500650Y1204350D01*
X5786350Y1429100D02*
X5796350Y1424350D01*
X6296350Y1419100D02*
Y1208650D01*
X6300650Y1204350D01*
X6586350Y1419100D02*
X6596350Y1424350D01*
X7116350Y1419100D02*
Y1210050D01*
X7110650Y1204350D01*
D02*
D18*
X966350Y1424350D03*
X1766350D03*
X2566350D03*
X3366350D03*
X4196350D03*
X4986350D03*
X5796350D03*
X6596350D03*
D02*
D19*
X466350Y644350D03*
X486350Y2464350D03*
X7596350Y644350D03*
Y2464350D03*
D02*
D70*
X966350Y1429100D03*
Y1619600D03*
X1476350Y1429100D03*
Y1619600D03*
X1766350Y1429100D03*
Y1619600D03*
X2276350Y1429100D03*
Y1619600D03*
X2566350Y1429100D03*
Y1619600D03*
X3086350Y1429100D03*
Y1619600D03*
X3366350Y1429100D03*
Y1619600D03*
X3866350Y1429100D03*
Y1619600D03*
X4186350Y1429100D03*
Y1619600D03*
X4696350Y1429100D03*
Y1619600D03*
X4986350Y1429100D03*
Y1619600D03*
X5496350Y1429100D03*
Y1619600D03*
X5786350Y1429100D03*
Y1619600D03*
X6296350Y1419100D03*
Y1609600D03*
X6586350Y1419100D03*
Y1609600D03*
X7116350Y1419100D03*
Y1609600D03*
D02*
D71*
X972350Y2510350D03*
X1226350D03*
X1480350D03*
X1772350D03*
X2026350D03*
X2280350D03*
X2572350D03*
X2826350D03*
X3080350D03*
X3372350D03*
X3626350D03*
X3880350D03*
X4192350D03*
X4446350D03*
X4700350D03*
X4992350D03*
X5246350D03*
X5500350D03*
X5792350Y2500350D03*
X6046350D03*
X6300350D03*
X6592350D03*
X6846350D03*
X7100350D03*
D02*
D20*
X966350Y1944350D03*
X1220350D03*
X1474350D03*
X1766350D03*
X2020350D03*
X2274350D03*
X2306350Y514350D03*
X2560350D03*
X2566350Y1944350D03*
X2814350Y514350D03*
X2820350Y1944350D03*
X3068350Y514350D03*
X3074350Y1944350D03*
X3322350Y514350D03*
X3366350Y1944350D03*
X3576350Y514350D03*
X3620350Y1944350D03*
X3830350Y514350D03*
X3874350Y1944350D03*
X4084350Y514350D03*
X4186350Y1944350D03*
X4440350D03*
X4694350D03*
X4986350D03*
X5240350D03*
X5256350Y514350D03*
X5494350Y1944350D03*
X5510350Y514350D03*
X5786350Y1944350D03*
X6040350D03*
X6294350D03*
X6586350D03*
X6840350D03*
X7094350D03*
D02*
D21*
X1242050Y1204350D03*
X1470650D03*
X2062050D03*
X2290650D03*
X2872050D03*
X3100650D03*
X3642050D03*
X3870650D03*
X4472050D03*
X4700650D03*
X5272050D03*
X5500650D03*
X6072050D03*
X6300650D03*
X6882050D03*
X7110650D03*
X0Y0D02*
M02*
